<?xml version="1.0" encoding="UTF-8" standalone="no"?>
<!DOCTYPE svg PUBLIC "-//W3C//DTD SVG 1.1//EN"
 "http://www.w3.org/Graphics/SVG/1.1/DTD/svg11.dtd">
<!-- Generated by graphviz version 2.40.1 (20161225.0304)
 -->
<!-- Title: %3 Pages: 1 -->
<svg width="4330pt" height="188pt"
 viewBox="0.00 0.00 4330.37 188.00" xmlns="http://www.w3.org/2000/svg" xmlns:xlink="http://www.w3.org/1999/xlink">
<g id="graph0" class="graph" transform="scale(1 1) rotate(0) translate(4 184)">
<title>%3</title>
<polygon fill="#ffffff" stroke="transparent" points="-4,4 -4,-184 4326.3679,-184 4326.3679,4 -4,4"/>
<!-- /home/sshuser/git&#45;repos/platform&#45;one/cubbyhole/env/prod/config&#45;as&#45;code -->
<g id="node1" class="node">
<title>/home/sshuser/git&#45;repos/platform&#45;one/cubbyhole/env/prod/config&#45;as&#45;code</title>
<ellipse fill="none" stroke="#000000" cx="271.026" cy="-162" rx="271.0519" ry="18"/>
<text text-anchor="middle" x="271.026" y="-158.3" font-family="Times,serif" font-size="14.00" fill="#000000">/home/sshuser/git&#45;repos/platform&#45;one/cubbyhole/env/prod/config&#45;as&#45;code</text>
</g>
<!-- audit_device -->
<g id="node2" class="node">
<title>audit_device</title>
<ellipse fill="none" stroke="#000000" cx="616.026" cy="-162" rx="55.7903" ry="18"/>
<text text-anchor="middle" x="616.026" y="-158.3" font-family="Times,serif" font-size="14.00" fill="#000000">audit_device</text>
</g>
<!-- backup_policy_s3 -->
<g id="node3" class="node">
<title>backup_policy_s3</title>
<ellipse fill="none" stroke="#000000" cx="765.026" cy="-162" rx="74.9875" ry="18"/>
<text text-anchor="middle" x="765.026" y="-158.3" font-family="Times,serif" font-size="14.00" fill="#000000">backup_policy_s3</text>
</g>
<!-- identity_control/groups/dso_ca_csr -->
<g id="node4" class="node">
<title>identity_control/groups/dso_ca_csr</title>
<ellipse fill="none" stroke="#000000" cx="2183.026" cy="-162" rx="134.5761" ry="18"/>
<text text-anchor="middle" x="2183.026" y="-158.3" font-family="Times,serif" font-size="14.00" fill="#000000">identity_control/groups/dso_ca_csr</text>
</g>
<!-- identity_control/users/cam -->
<g id="node5" class="node">
<title>identity_control/users/cam</title>
<ellipse fill="none" stroke="#000000" cx="1410.026" cy="-90" rx="104.7816" ry="18"/>
<text text-anchor="middle" x="1410.026" y="-86.3" font-family="Times,serif" font-size="14.00" fill="#000000">identity_control/users/cam</text>
</g>
<!-- identity_control/groups/dso_ca_csr&#45;&gt;identity_control/users/cam -->
<g id="edge1" class="edge">
<title>identity_control/groups/dso_ca_csr&#45;&gt;identity_control/users/cam</title>
<path fill="none" stroke="#000000" d="M2087.4465,-149.3088C2071.3015,-147.3784 2054.6985,-145.5251 2039.026,-144 1810.2159,-121.7345 1751.4295,-134.1074 1523.026,-108 1513.6509,-106.9284 1503.8646,-105.6348 1494.1424,-104.2384"/>
<polygon fill="#000000" stroke="#000000" points="1494.4575,-100.7471 1484.0539,-102.751 1493.4364,-107.6722 1494.4575,-100.7471"/>
</g>
<!-- identity_control/users/gabe -->
<g id="node6" class="node">
<title>identity_control/users/gabe</title>
<ellipse fill="none" stroke="#000000" cx="1639.026" cy="-90" rx="106.6812" ry="18"/>
<text text-anchor="middle" x="1639.026" y="-86.3" font-family="Times,serif" font-size="14.00" fill="#000000">identity_control/users/gabe</text>
</g>
<!-- identity_control/groups/dso_ca_csr&#45;&gt;identity_control/users/gabe -->
<g id="edge2" class="edge">
<title>identity_control/groups/dso_ca_csr&#45;&gt;identity_control/users/gabe</title>
<path fill="none" stroke="#000000" d="M2084.6768,-149.6961C1963.1233,-134.4781 1770.2159,-110.2855 1754.026,-108 1745.0621,-106.7346 1735.714,-105.3609 1726.3906,-103.9555"/>
<polygon fill="#000000" stroke="#000000" points="1726.7153,-100.4648 1716.3028,-102.4218 1725.663,-107.3852 1726.7153,-100.4648"/>
</g>
<!-- identity_control/users/israel -->
<g id="node7" class="node">
<title>identity_control/users/israel</title>
<ellipse fill="none" stroke="#000000" cx="1872.026" cy="-90" rx="108.5808" ry="18"/>
<text text-anchor="middle" x="1872.026" y="-86.3" font-family="Times,serif" font-size="14.00" fill="#000000">identity_control/users/israel</text>
</g>
<!-- identity_control/groups/dso_ca_csr&#45;&gt;identity_control/users/israel -->
<g id="edge3" class="edge">
<title>identity_control/groups/dso_ca_csr&#45;&gt;identity_control/users/israel</title>
<path fill="none" stroke="#000000" d="M2115.5436,-146.3771C2065.2782,-134.7401 1996.717,-118.8674 1945.1487,-106.9287"/>
<polygon fill="#000000" stroke="#000000" points="1945.9311,-103.5174 1935.3993,-104.6717 1944.3522,-110.337 1945.9311,-103.5174"/>
</g>
<!-- identity_control/userpass_auth_backend -->
<g id="node13" class="node">
<title>identity_control/userpass_auth_backend</title>
<ellipse fill="none" stroke="#000000" cx="1639.026" cy="-18" rx="152.1731" ry="18"/>
<text text-anchor="middle" x="1639.026" y="-14.3" font-family="Times,serif" font-size="14.00" fill="#000000">identity_control/userpass_auth_backend</text>
</g>
<!-- identity_control/users/cam&#45;&gt;identity_control/userpass_auth_backend -->
<g id="edge16" class="edge">
<title>identity_control/users/cam&#45;&gt;identity_control/userpass_auth_backend</title>
<path fill="none" stroke="#000000" d="M1460.281,-74.1993C1494.098,-63.5669 1538.9696,-49.4588 1575.2937,-38.0381"/>
<polygon fill="#000000" stroke="#000000" points="1576.8063,-41.2315 1585.2961,-34.8932 1574.7067,-34.5538 1576.8063,-41.2315"/>
</g>
<!-- identity_control/users/gabe&#45;&gt;identity_control/userpass_auth_backend -->
<g id="edge17" class="edge">
<title>identity_control/users/gabe&#45;&gt;identity_control/userpass_auth_backend</title>
<path fill="none" stroke="#000000" d="M1639.026,-71.8314C1639.026,-64.131 1639.026,-54.9743 1639.026,-46.4166"/>
<polygon fill="#000000" stroke="#000000" points="1642.5261,-46.4132 1639.026,-36.4133 1635.5261,-46.4133 1642.5261,-46.4132"/>
</g>
<!-- identity_control/users/israel&#45;&gt;identity_control/userpass_auth_backend -->
<g id="edge18" class="edge">
<title>identity_control/users/israel&#45;&gt;identity_control/userpass_auth_backend</title>
<path fill="none" stroke="#000000" d="M1820.6047,-74.1102C1786.0354,-63.4278 1740.2101,-49.2672 1703.2448,-37.8445"/>
<polygon fill="#000000" stroke="#000000" points="1704.1492,-34.4607 1693.5616,-34.8522 1702.0825,-41.1486 1704.1492,-34.4607"/>
</g>
<!-- identity_control/groups/il2_npe_ca_csr -->
<g id="node8" class="node">
<title>identity_control/groups/il2_npe_ca_csr</title>
<ellipse fill="none" stroke="#000000" cx="1007.026" cy="-162" rx="148.6738" ry="18"/>
<text text-anchor="middle" x="1007.026" y="-158.3" font-family="Times,serif" font-size="14.00" fill="#000000">identity_control/groups/il2_npe_ca_csr</text>
</g>
<!-- identity_control/groups/il2_npe_ca_csr&#45;&gt;identity_control/users/cam -->
<g id="edge4" class="edge">
<title>identity_control/groups/il2_npe_ca_csr&#45;&gt;identity_control/users/cam</title>
<path fill="none" stroke="#000000" d="M1090.5278,-147.0816C1159.9663,-134.6757 1258.2706,-117.1126 1327.4507,-104.7529"/>
<polygon fill="#000000" stroke="#000000" points="1328.2108,-108.1726 1337.4394,-102.9683 1326.9797,-101.2817 1328.2108,-108.1726"/>
</g>
<!-- identity_control/groups/il2_npe_ca_csr&#45;&gt;identity_control/users/gabe -->
<g id="edge5" class="edge">
<title>identity_control/groups/il2_npe_ca_csr&#45;&gt;identity_control/users/gabe</title>
<path fill="none" stroke="#000000" d="M1114.9444,-149.509C1131.7068,-147.6257 1148.8299,-145.7345 1165.026,-144 1324.47,-126.9241 1364.9739,-128.4064 1524.026,-108 1533.2494,-106.8166 1542.8726,-105.4771 1552.4539,-104.0758"/>
<polygon fill="#000000" stroke="#000000" points="1553.028,-107.529 1562.4049,-102.5971 1551.999,-100.605 1553.028,-107.529"/>
</g>
<!-- identity_control/groups/il2_npe_ca_csr&#45;&gt;identity_control/users/israel -->
<g id="edge6" class="edge">
<title>identity_control/groups/il2_npe_ca_csr&#45;&gt;identity_control/users/israel</title>
<path fill="none" stroke="#000000" d="M1112.3348,-149.2239C1129.9142,-147.3148 1147.974,-145.4905 1165.026,-144 1426.738,-121.1238 1493.8128,-136.0029 1755.026,-108 1764.8345,-106.9485 1775.0781,-105.6585 1785.2488,-104.2564"/>
<polygon fill="#000000" stroke="#000000" points="1785.9662,-107.6898 1795.3763,-102.8216 1784.9842,-100.759 1785.9662,-107.6898"/>
</g>
<!-- identity_control/groups/il4_npe_ca_csr -->
<g id="node9" class="node">
<title>identity_control/groups/il4_npe_ca_csr</title>
<ellipse fill="none" stroke="#000000" cx="1323.026" cy="-162" rx="148.6738" ry="18"/>
<text text-anchor="middle" x="1323.026" y="-158.3" font-family="Times,serif" font-size="14.00" fill="#000000">identity_control/groups/il4_npe_ca_csr</text>
</g>
<!-- identity_control/groups/il4_npe_ca_csr&#45;&gt;identity_control/users/cam -->
<g id="edge7" class="edge">
<title>identity_control/groups/il4_npe_ca_csr&#45;&gt;identity_control/users/cam</title>
<path fill="none" stroke="#000000" d="M1344.9797,-143.8314C1355.859,-134.8278 1369.1438,-123.8335 1380.8648,-114.1334"/>
<polygon fill="#000000" stroke="#000000" points="1383.2082,-116.7371 1388.6807,-107.665 1378.7452,-111.3444 1383.2082,-116.7371"/>
</g>
<!-- identity_control/groups/il4_npe_ca_csr&#45;&gt;identity_control/users/gabe -->
<g id="edge8" class="edge">
<title>identity_control/groups/il4_npe_ca_csr&#45;&gt;identity_control/users/gabe</title>
<path fill="none" stroke="#000000" d="M1393.1566,-146.0209C1444.4024,-134.3446 1513.7307,-118.5483 1565.7063,-106.7057"/>
<polygon fill="#000000" stroke="#000000" points="1566.5574,-110.1016 1575.5299,-104.4674 1565.0023,-103.2765 1566.5574,-110.1016"/>
</g>
<!-- identity_control/groups/il4_npe_ca_csr&#45;&gt;identity_control/users/israel -->
<g id="edge9" class="edge">
<title>identity_control/groups/il4_npe_ca_csr&#45;&gt;identity_control/users/israel</title>
<path fill="none" stroke="#000000" d="M1430.1006,-149.4697C1517.5872,-139.0263 1644.4205,-123.4178 1755.026,-108 1764.0695,-106.7394 1773.4981,-105.3742 1782.9056,-103.9786"/>
<polygon fill="#000000" stroke="#000000" points="1783.7142,-107.3967 1793.0864,-102.4559 1782.6787,-100.4737 1783.7142,-107.3967"/>
</g>
<!-- identity_control/groups/il5_npe_ca_csr -->
<g id="node10" class="node">
<title>identity_control/groups/il5_npe_ca_csr</title>
<ellipse fill="none" stroke="#000000" cx="1639.026" cy="-162" rx="148.6738" ry="18"/>
<text text-anchor="middle" x="1639.026" y="-158.3" font-family="Times,serif" font-size="14.00" fill="#000000">identity_control/groups/il5_npe_ca_csr</text>
</g>
<!-- identity_control/groups/il5_npe_ca_csr&#45;&gt;identity_control/users/cam -->
<g id="edge10" class="edge">
<title>identity_control/groups/il5_npe_ca_csr&#45;&gt;identity_control/users/cam</title>
<path fill="none" stroke="#000000" d="M1585.3356,-145.1192C1550.8969,-134.2913 1506.1189,-120.2126 1470.4384,-108.9943"/>
<polygon fill="#000000" stroke="#000000" points="1471.2215,-105.5717 1460.6321,-105.9111 1469.1219,-112.2494 1471.2215,-105.5717"/>
</g>
<!-- identity_control/groups/il5_npe_ca_csr&#45;&gt;identity_control/users/gabe -->
<g id="edge11" class="edge">
<title>identity_control/groups/il5_npe_ca_csr&#45;&gt;identity_control/users/gabe</title>
<path fill="none" stroke="#000000" d="M1639.026,-143.8314C1639.026,-136.131 1639.026,-126.9743 1639.026,-118.4166"/>
<polygon fill="#000000" stroke="#000000" points="1642.5261,-118.4132 1639.026,-108.4133 1635.5261,-118.4133 1642.5261,-118.4132"/>
</g>
<!-- identity_control/groups/il5_npe_ca_csr&#45;&gt;identity_control/users/israel -->
<g id="edge12" class="edge">
<title>identity_control/groups/il5_npe_ca_csr&#45;&gt;identity_control/users/israel</title>
<path fill="none" stroke="#000000" d="M1693.36,-145.2101C1728.391,-134.385 1774.0276,-120.2828 1810.4084,-109.0406"/>
<polygon fill="#000000" stroke="#000000" points="1811.8869,-112.2471 1820.4078,-105.9507 1809.8202,-105.5592 1811.8869,-112.2471"/>
</g>
<!-- identity_control/groups/security_officer -->
<g id="node11" class="node">
<title>identity_control/groups/security_officer</title>
<ellipse fill="none" stroke="#000000" cx="2487.026" cy="-162" rx="151.3732" ry="18"/>
<text text-anchor="middle" x="2487.026" y="-158.3" font-family="Times,serif" font-size="14.00" fill="#000000">identity_control/groups/security_officer</text>
</g>
<!-- identity_control/groups/sudo -->
<g id="node12" class="node">
<title>identity_control/groups/sudo</title>
<ellipse fill="none" stroke="#000000" cx="1918.026" cy="-162" rx="112.3801" ry="18"/>
<text text-anchor="middle" x="1918.026" y="-158.3" font-family="Times,serif" font-size="14.00" fill="#000000">identity_control/groups/sudo</text>
</g>
<!-- identity_control/groups/sudo&#45;&gt;identity_control/users/cam -->
<g id="edge13" class="edge">
<title>identity_control/groups/sudo&#45;&gt;identity_control/users/cam</title>
<path fill="none" stroke="#000000" d="M1836.0428,-149.6111C1822.9966,-147.6953 1809.6456,-145.7676 1797.026,-144 1675.3889,-126.9631 1644.5738,-125.6623 1523.026,-108 1514.2194,-106.7203 1505.0347,-105.3373 1495.874,-103.9263"/>
<polygon fill="#000000" stroke="#000000" points="1496.3806,-100.4631 1485.9621,-102.3878 1495.3069,-107.3803 1496.3806,-100.4631"/>
</g>
<!-- identity_control/groups/sudo&#45;&gt;identity_control/users/gabe -->
<g id="edge14" class="edge">
<title>identity_control/groups/sudo&#45;&gt;identity_control/users/gabe</title>
<path fill="none" stroke="#000000" d="M1858.5157,-146.6425C1814.2337,-135.2149 1753.71,-119.5959 1707.4324,-107.6533"/>
<polygon fill="#000000" stroke="#000000" points="1708.045,-104.1968 1697.4876,-105.0869 1706.2958,-110.9747 1708.045,-104.1968"/>
</g>
<!-- identity_control/groups/sudo&#45;&gt;identity_control/users/israel -->
<g id="edge15" class="edge">
<title>identity_control/groups/sudo&#45;&gt;identity_control/users/israel</title>
<path fill="none" stroke="#000000" d="M1906.4182,-143.8314C1901.1483,-135.5829 1894.811,-125.6635 1889.0199,-116.5992"/>
<polygon fill="#000000" stroke="#000000" points="1891.804,-114.456 1883.4706,-107.9134 1885.9051,-118.2248 1891.804,-114.456"/>
</g>
<!-- pki/dso_mil_ca -->
<g id="node14" class="node">
<title>pki/dso_mil_ca</title>
<ellipse fill="none" stroke="#000000" cx="2582.026" cy="-90" rx="65.7887" ry="18"/>
<text text-anchor="middle" x="2582.026" y="-86.3" font-family="Times,serif" font-size="14.00" fill="#000000">pki/dso_mil_ca</text>
</g>
<!-- pki/p1_int_ca -->
<g id="node15" class="node">
<title>pki/p1_int_ca</title>
<ellipse fill="none" stroke="#000000" cx="2794.026" cy="-18" rx="59.2899" ry="18"/>
<text text-anchor="middle" x="2794.026" y="-14.3" font-family="Times,serif" font-size="14.00" fill="#000000">pki/p1_int_ca</text>
</g>
<!-- pki/dso_mil_ca&#45;&gt;pki/p1_int_ca -->
<g id="edge19" class="edge">
<title>pki/dso_mil_ca&#45;&gt;pki/p1_int_ca</title>
<path fill="none" stroke="#000000" d="M2623.405,-75.9468C2658.2487,-64.113 2708.1567,-47.1632 2744.9996,-34.6505"/>
<polygon fill="#000000" stroke="#000000" points="2746.2003,-37.9391 2754.5436,-31.4091 2743.9492,-31.3109 2746.2003,-37.9391"/>
</g>
<!-- pki/il2_int_ca -->
<g id="node16" class="node">
<title>pki/il2_int_ca</title>
<ellipse fill="none" stroke="#000000" cx="2725.026" cy="-90" rx="59.5901" ry="18"/>
<text text-anchor="middle" x="2725.026" y="-86.3" font-family="Times,serif" font-size="14.00" fill="#000000">pki/il2_int_ca</text>
</g>
<!-- pki/il2_int_ca&#45;&gt;pki/p1_int_ca -->
<g id="edge20" class="edge">
<title>pki/il2_int_ca&#45;&gt;pki/p1_int_ca</title>
<path fill="none" stroke="#000000" d="M2741.7289,-72.5708C2750.2261,-63.7041 2760.7068,-52.7678 2770.0491,-43.0194"/>
<polygon fill="#000000" stroke="#000000" points="2772.8455,-45.1598 2777.2376,-35.5182 2767.7916,-40.3165 2772.8455,-45.1598"/>
</g>
<!-- pki/il2_npe_ca -->
<g id="node17" class="node">
<title>pki/il2_npe_ca</title>
<ellipse fill="none" stroke="#000000" cx="2719.026" cy="-162" rx="63.0888" ry="18"/>
<text text-anchor="middle" x="2719.026" y="-158.3" font-family="Times,serif" font-size="14.00" fill="#000000">pki/il2_npe_ca</text>
</g>
<!-- pki/il2_npe_ca&#45;&gt;pki/il2_int_ca -->
<g id="edge21" class="edge">
<title>pki/il2_npe_ca&#45;&gt;pki/il2_int_ca</title>
<path fill="none" stroke="#000000" d="M2720.54,-143.8314C2721.1817,-136.131 2721.9448,-126.9743 2722.6579,-118.4166"/>
<polygon fill="#000000" stroke="#000000" points="2726.1489,-118.6694 2723.4915,-108.4133 2719.1731,-118.088 2726.1489,-118.6694"/>
</g>
<!-- pki/il4_int_ca -->
<g id="node18" class="node">
<title>pki/il4_int_ca</title>
<ellipse fill="none" stroke="#000000" cx="2863.026" cy="-90" rx="59.5901" ry="18"/>
<text text-anchor="middle" x="2863.026" y="-86.3" font-family="Times,serif" font-size="14.00" fill="#000000">pki/il4_int_ca</text>
</g>
<!-- pki/il4_int_ca&#45;&gt;pki/p1_int_ca -->
<g id="edge22" class="edge">
<title>pki/il4_int_ca&#45;&gt;pki/p1_int_ca</title>
<path fill="none" stroke="#000000" d="M2846.323,-72.5708C2837.8258,-63.7041 2827.3451,-52.7678 2818.0028,-43.0194"/>
<polygon fill="#000000" stroke="#000000" points="2820.2603,-40.3165 2810.8143,-35.5182 2815.2064,-45.1598 2820.2603,-40.3165"/>
</g>
<!-- pki/il4_npe_ca -->
<g id="node19" class="node">
<title>pki/il4_npe_ca</title>
<ellipse fill="none" stroke="#000000" cx="2863.026" cy="-162" rx="63.0888" ry="18"/>
<text text-anchor="middle" x="2863.026" y="-158.3" font-family="Times,serif" font-size="14.00" fill="#000000">pki/il4_npe_ca</text>
</g>
<!-- pki/il4_npe_ca&#45;&gt;pki/il4_int_ca -->
<g id="edge23" class="edge">
<title>pki/il4_npe_ca&#45;&gt;pki/il4_int_ca</title>
<path fill="none" stroke="#000000" d="M2863.026,-143.8314C2863.026,-136.131 2863.026,-126.9743 2863.026,-118.4166"/>
<polygon fill="#000000" stroke="#000000" points="2866.5261,-118.4132 2863.026,-108.4133 2859.5261,-118.4133 2866.5261,-118.4132"/>
</g>
<!-- pki/il5_int_ca -->
<g id="node20" class="node">
<title>pki/il5_int_ca</title>
<ellipse fill="none" stroke="#000000" cx="3004.026" cy="-90" rx="59.5901" ry="18"/>
<text text-anchor="middle" x="3004.026" y="-86.3" font-family="Times,serif" font-size="14.00" fill="#000000">pki/il5_int_ca</text>
</g>
<!-- pki/il5_int_ca&#45;&gt;pki/p1_int_ca -->
<g id="edge24" class="edge">
<title>pki/il5_int_ca&#45;&gt;pki/p1_int_ca</title>
<path fill="none" stroke="#000000" d="M2964.5266,-76.4574C2930.0617,-64.6408 2879.9208,-47.4497 2842.9295,-34.7669"/>
<polygon fill="#000000" stroke="#000000" points="2843.9429,-31.4144 2833.3482,-31.4819 2841.6725,-38.036 2843.9429,-31.4144"/>
</g>
<!-- pki/il5_npe_ca -->
<g id="node21" class="node">
<title>pki/il5_npe_ca</title>
<ellipse fill="none" stroke="#000000" cx="3007.026" cy="-162" rx="63.0888" ry="18"/>
<text text-anchor="middle" x="3007.026" y="-158.3" font-family="Times,serif" font-size="14.00" fill="#000000">pki/il5_npe_ca</text>
</g>
<!-- pki/il5_npe_ca&#45;&gt;pki/il5_int_ca -->
<g id="edge25" class="edge">
<title>pki/il5_npe_ca&#45;&gt;pki/il5_int_ca</title>
<path fill="none" stroke="#000000" d="M3006.2689,-143.8314C3005.9481,-136.131 3005.5665,-126.9743 3005.21,-118.4166"/>
<polygon fill="#000000" stroke="#000000" points="3008.7065,-118.2589 3004.7932,-108.4133 3001.7126,-118.5503 3008.7065,-118.2589"/>
</g>
<!-- policies/control&#45;group&#45;authority -->
<g id="node22" class="node">
<title>policies/control&#45;group&#45;authority</title>
<ellipse fill="none" stroke="#000000" cx="3212.026" cy="-162" rx="123.4781" ry="18"/>
<text text-anchor="middle" x="3212.026" y="-158.3" font-family="Times,serif" font-size="14.00" fill="#000000">policies/control&#45;group&#45;authority</text>
</g>
<!-- policies/dso&#45;ca -->
<g id="node23" class="node">
<title>policies/dso&#45;ca</title>
<ellipse fill="none" stroke="#000000" cx="3417.026" cy="-162" rx="63.8893" ry="18"/>
<text text-anchor="middle" x="3417.026" y="-158.3" font-family="Times,serif" font-size="14.00" fill="#000000">policies/dso&#45;ca</text>
</g>
<!-- policies/il2&#45;npe&#45;ca -->
<g id="node24" class="node">
<title>policies/il2&#45;npe&#45;ca</title>
<ellipse fill="none" stroke="#000000" cx="3575.026" cy="-162" rx="76.0865" ry="18"/>
<text text-anchor="middle" x="3575.026" y="-158.3" font-family="Times,serif" font-size="14.00" fill="#000000">policies/il2&#45;npe&#45;ca</text>
</g>
<!-- policies/il4&#45;npe&#45;ca -->
<g id="node25" class="node">
<title>policies/il4&#45;npe&#45;ca</title>
<ellipse fill="none" stroke="#000000" cx="3745.026" cy="-162" rx="76.0865" ry="18"/>
<text text-anchor="middle" x="3745.026" y="-158.3" font-family="Times,serif" font-size="14.00" fill="#000000">policies/il4&#45;npe&#45;ca</text>
</g>
<!-- policies/il5&#45;npe&#45;ca -->
<g id="node26" class="node">
<title>policies/il5&#45;npe&#45;ca</title>
<ellipse fill="none" stroke="#000000" cx="3915.026" cy="-162" rx="76.0865" ry="18"/>
<text text-anchor="middle" x="3915.026" y="-158.3" font-family="Times,serif" font-size="14.00" fill="#000000">policies/il5&#45;npe&#45;ca</text>
</g>
<!-- policies/sudo -->
<g id="node27" class="node">
<title>policies/sudo</title>
<ellipse fill="none" stroke="#000000" cx="4066.026" cy="-162" rx="57.3905" ry="18"/>
<text text-anchor="middle" x="4066.026" y="-158.3" font-family="Times,serif" font-size="14.00" fill="#000000">policies/sudo</text>
</g>
<!-- policies/vault&#45;operator -->
<g id="node28" class="node">
<title>policies/vault&#45;operator</title>
<ellipse fill="none" stroke="#000000" cx="4232.026" cy="-162" rx="90.1842" ry="18"/>
<text text-anchor="middle" x="4232.026" y="-158.3" font-family="Times,serif" font-size="14.00" fill="#000000">policies/vault&#45;operator</text>
</g>
</g>
</svg>
